<?xml version="1.0" encoding="UTF-8"?>
<svg id="Layer_1" data-name="Layer 1" xmlns="http://www.w3.org/2000/svg" viewBox="0 0 888.98 306.42">
  <defs>
    <style>
      .cls-1 {
        stroke-width: 1px;
      }

      .cls-1, .cls-2, .cls-3, .cls-4, .cls-5 {
        fill: none;
        stroke: #282525;
        stroke-miterlimit: 10;
      }

      .cls-6 {
        fill: #262324;
      }

      .cls-3 {
        stroke-width: .25px;
      }

      .cls-4 {
        stroke-width: 30px;
      }

      .cls-5 {
        stroke-width: 8px;
      }
    </style>
  </defs>
  <g>
    <line class="cls-1" x1="884.98" y1="5.18" x2="884.98" y2="256.72"/>
    <g>
      <line class="cls-5" x1="4" y1="5.18" x2="4" y2="256.72"/>
      <line class="cls-5" x1="71.77" y1="5.18" x2="71.77" y2="256.72"/>
      <line class="cls-5" x1="139.54" y1="5.18" x2="139.54" y2="256.72"/>
      <line class="cls-5" x1="207.3" y1="5.18" x2="207.3" y2="256.72"/>
      <line class="cls-5" x1="275.07" y1="5.18" x2="275.07" y2="256.72"/>
      <line class="cls-5" x1="342.84" y1="5.18" x2="342.84" y2="256.72"/>
      <line class="cls-5" x1="410.61" y1="5.18" x2="410.61" y2="256.72"/>
      <line class="cls-5" x1="478.37" y1="5.18" x2="478.37" y2="256.72"/>
      <line class="cls-5" x1="546.14" y1="5.18" x2="546.14" y2="256.72"/>
      <line class="cls-5" x1="613.91" y1="5.18" x2="613.91" y2="256.72"/>
      <line class="cls-5" x1="681.68" y1="5.18" x2="681.68" y2="256.72"/>
      <line class="cls-5" x1="749.45" y1="5.18" x2="749.45" y2="256.72"/>
      <line class="cls-5" x1="817.21" y1="5.18" x2="817.21" y2="256.72"/>
      <line class="cls-5" x1="884.98" y1="5.18" x2="884.98" y2="256.72"/>
    </g>
    <line class="cls-3" x1="884.98" y1="256.72" x2="884.98" y2="5.18"/>
    <line class="cls-2" x1="4" y1="5.18" x2="207.3" y2="256.72"/>
    <line class="cls-2" x1="71.77" y1="5.18" x2="275.07" y2="256.72"/>
    <line class="cls-2" x1="207.3" y1="5.18" x2="410.61" y2="256.72"/>
    <line class="cls-2" x1="342.84" y1="5.18" x2="546.14" y2="256.72"/>
    <line class="cls-2" x1="478.37" y1="5.18" x2="681.68" y2="256.72"/>
    <line class="cls-2" x1="817.21" y1="256.72" x2="613.91" y2="5.18"/>
    <line class="cls-2" x1="749.45" y1="5.18" x2="884.98" y2="172.87"/>
    <line class="cls-2" x1="817.21" y1="5.18" x2="884.98" y2="89.03"/>
    <polyline class="cls-2" points="139.54 5.18 4 172.87 71.77 256.72 275.07 5.18"/>
    <polyline class="cls-2" points="71.77 5.18 4 89.03 139.54 256.72 342.84 5.18"/>
    <line class="cls-2" x1="342.84" y1="256.72" x2="139.54" y2="5.18"/>
    <line class="cls-2" x1="275.07" y1="5.18" x2="478.37" y2="256.72"/>
    <line class="cls-2" x1="410.61" y1="5.18" x2="613.91" y2="256.72"/>
    <line class="cls-2" x1="749.45" y1="256.72" x2="546.14" y2="5.18"/>
    <line class="cls-2" x1="681.68" y1="5.18" x2="884.98" y2="256.72"/>
    <line class="cls-2" x1="749.45" y1="5.18" x2="546.14" y2="256.72"/>
    <line class="cls-2" x1="817.21" y1="5.18" x2="613.91" y2="256.72"/>
    <line class="cls-2" x1="681.68" y1="5.18" x2="478.37" y2="256.72"/>
    <line class="cls-2" x1="546.14" y1="5.18" x2="342.84" y2="256.72"/>
    <line class="cls-2" x1="410.61" y1="5.18" x2="207.3" y2="256.72"/>
    <line class="cls-2" x1="613.91" y1="5.18" x2="410.61" y2="256.72"/>
    <line class="cls-2" x1="478.37" y1="5.18" x2="275.07" y2="256.72"/>
    <line class="cls-2" x1="207.3" y1="5.18" x2="4" y2="256.72"/>
    <g>
      <line class="cls-3" x1="4" y1="5.18" x2="4" y2="256.72"/>
      <line class="cls-3" x1="9.47" y1="5.18" x2="9.47" y2="256.72"/>
      <line class="cls-3" x1="14.94" y1="5.18" x2="14.94" y2="256.72"/>
      <line class="cls-3" x1="20.42" y1="5.18" x2="20.42" y2="256.72"/>
      <line class="cls-3" x1="25.89" y1="5.18" x2="25.89" y2="256.72"/>
      <line class="cls-3" x1="31.36" y1="5.18" x2="31.36" y2="256.72"/>
      <line class="cls-3" x1="36.83" y1="5.18" x2="36.83" y2="256.72"/>
      <line class="cls-3" x1="42.3" y1="5.18" x2="42.3" y2="256.72"/>
      <line class="cls-3" x1="47.78" y1="5.18" x2="47.78" y2="256.72"/>
      <line class="cls-3" x1="53.25" y1="5.18" x2="53.25" y2="256.72"/>
      <line class="cls-3" x1="58.72" y1="5.18" x2="58.72" y2="256.72"/>
      <line class="cls-3" x1="64.19" y1="5.18" x2="64.19" y2="256.72"/>
      <line class="cls-3" x1="69.66" y1="5.18" x2="69.66" y2="256.72"/>
      <line class="cls-3" x1="75.14" y1="5.18" x2="75.14" y2="256.72"/>
      <line class="cls-3" x1="80.61" y1="5.18" x2="80.61" y2="256.72"/>
      <line class="cls-3" x1="86.08" y1="5.18" x2="86.08" y2="256.72"/>
      <line class="cls-3" x1="91.55" y1="5.18" x2="91.55" y2="256.72"/>
      <line class="cls-3" x1="97.02" y1="5.18" x2="97.02" y2="256.72"/>
      <line class="cls-3" x1="102.49" y1="5.18" x2="102.49" y2="256.72"/>
      <line class="cls-3" x1="107.97" y1="5.18" x2="107.97" y2="256.72"/>
      <line class="cls-3" x1="113.44" y1="5.18" x2="113.44" y2="256.72"/>
      <line class="cls-3" x1="118.91" y1="5.18" x2="118.91" y2="256.72"/>
      <line class="cls-3" x1="124.38" y1="5.18" x2="124.38" y2="256.72"/>
      <line class="cls-3" x1="129.85" y1="5.18" x2="129.85" y2="256.72"/>
      <line class="cls-3" x1="135.33" y1="5.18" x2="135.33" y2="256.72"/>
      <line class="cls-3" x1="140.8" y1="5.18" x2="140.8" y2="256.72"/>
      <line class="cls-3" x1="146.27" y1="5.18" x2="146.27" y2="256.72"/>
      <line class="cls-3" x1="151.74" y1="5.18" x2="151.74" y2="256.72"/>
      <line class="cls-3" x1="157.21" y1="5.18" x2="157.21" y2="256.72"/>
      <line class="cls-3" x1="162.69" y1="5.18" x2="162.69" y2="256.72"/>
      <line class="cls-3" x1="168.16" y1="5.18" x2="168.16" y2="256.72"/>
      <line class="cls-3" x1="173.63" y1="5.18" x2="173.63" y2="256.72"/>
      <line class="cls-3" x1="179.1" y1="5.18" x2="179.1" y2="256.72"/>
      <line class="cls-3" x1="184.57" y1="5.18" x2="184.57" y2="256.72"/>
      <line class="cls-3" x1="190.05" y1="5.18" x2="190.05" y2="256.72"/>
      <line class="cls-3" x1="195.52" y1="5.18" x2="195.52" y2="256.72"/>
      <line class="cls-3" x1="200.99" y1="5.18" x2="200.99" y2="256.72"/>
      <line class="cls-3" x1="206.46" y1="5.18" x2="206.46" y2="256.72"/>
      <line class="cls-3" x1="211.93" y1="5.18" x2="211.93" y2="256.72"/>
      <line class="cls-3" x1="217.41" y1="5.18" x2="217.41" y2="256.72"/>
      <line class="cls-3" x1="222.88" y1="5.18" x2="222.88" y2="256.72"/>
      <line class="cls-3" x1="228.35" y1="5.18" x2="228.35" y2="256.72"/>
      <line class="cls-3" x1="233.82" y1="5.18" x2="233.82" y2="256.72"/>
      <line class="cls-3" x1="239.29" y1="5.18" x2="239.29" y2="256.72"/>
      <line class="cls-3" x1="244.77" y1="5.18" x2="244.77" y2="256.72"/>
      <line class="cls-3" x1="250.24" y1="5.18" x2="250.24" y2="256.72"/>
      <line class="cls-3" x1="255.71" y1="5.18" x2="255.71" y2="256.72"/>
      <line class="cls-3" x1="261.18" y1="5.18" x2="261.18" y2="256.72"/>
      <line class="cls-3" x1="266.65" y1="5.18" x2="266.65" y2="256.72"/>
      <line class="cls-3" x1="272.12" y1="5.18" x2="272.12" y2="256.72"/>
      <line class="cls-3" x1="277.6" y1="5.18" x2="277.6" y2="256.72"/>
      <line class="cls-3" x1="283.07" y1="5.18" x2="283.07" y2="256.72"/>
      <line class="cls-3" x1="288.54" y1="5.18" x2="288.54" y2="256.72"/>
      <line class="cls-3" x1="294.01" y1="5.18" x2="294.01" y2="256.72"/>
      <line class="cls-3" x1="299.48" y1="5.18" x2="299.48" y2="256.72"/>
      <line class="cls-3" x1="304.96" y1="5.18" x2="304.96" y2="256.72"/>
      <line class="cls-3" x1="310.43" y1="5.18" x2="310.43" y2="256.72"/>
      <line class="cls-3" x1="315.9" y1="5.18" x2="315.9" y2="256.72"/>
      <line class="cls-3" x1="321.37" y1="5.18" x2="321.37" y2="256.72"/>
      <line class="cls-3" x1="326.84" y1="5.18" x2="326.84" y2="256.72"/>
      <line class="cls-3" x1="332.32" y1="5.18" x2="332.32" y2="256.72"/>
      <line class="cls-3" x1="337.79" y1="5.18" x2="337.79" y2="256.72"/>
      <line class="cls-3" x1="343.26" y1="5.18" x2="343.26" y2="256.72"/>
      <line class="cls-3" x1="348.73" y1="5.18" x2="348.73" y2="256.72"/>
      <line class="cls-3" x1="354.2" y1="5.18" x2="354.2" y2="256.72"/>
      <line class="cls-3" x1="359.68" y1="5.18" x2="359.68" y2="256.72"/>
      <line class="cls-3" x1="365.15" y1="5.18" x2="365.15" y2="256.72"/>
      <line class="cls-3" x1="370.62" y1="5.18" x2="370.62" y2="256.72"/>
      <line class="cls-3" x1="376.09" y1="5.18" x2="376.09" y2="256.72"/>
      <line class="cls-3" x1="381.56" y1="5.18" x2="381.56" y2="256.72"/>
      <line class="cls-3" x1="387.04" y1="5.18" x2="387.04" y2="256.72"/>
      <line class="cls-3" x1="392.51" y1="5.18" x2="392.51" y2="256.72"/>
      <line class="cls-3" x1="397.98" y1="5.18" x2="397.98" y2="256.72"/>
      <line class="cls-3" x1="403.45" y1="5.18" x2="403.45" y2="256.72"/>
      <line class="cls-3" x1="408.92" y1="5.18" x2="408.92" y2="256.72"/>
      <line class="cls-3" x1="414.4" y1="5.18" x2="414.4" y2="256.72"/>
      <line class="cls-3" x1="419.87" y1="5.18" x2="419.87" y2="256.72"/>
      <line class="cls-3" x1="425.34" y1="5.18" x2="425.34" y2="256.72"/>
      <line class="cls-3" x1="430.81" y1="5.18" x2="430.81" y2="256.72"/>
      <line class="cls-3" x1="436.28" y1="5.18" x2="436.28" y2="256.72"/>
      <line class="cls-3" x1="441.75" y1="5.18" x2="441.75" y2="256.72"/>
      <line class="cls-3" x1="447.23" y1="5.18" x2="447.23" y2="256.72"/>
      <line class="cls-3" x1="452.7" y1="5.18" x2="452.7" y2="256.72"/>
      <line class="cls-3" x1="458.17" y1="5.18" x2="458.17" y2="256.72"/>
      <line class="cls-3" x1="463.64" y1="5.18" x2="463.64" y2="256.72"/>
      <line class="cls-3" x1="469.11" y1="5.18" x2="469.11" y2="256.72"/>
      <line class="cls-3" x1="474.59" y1="5.18" x2="474.59" y2="256.72"/>
      <line class="cls-3" x1="480.06" y1="5.18" x2="480.06" y2="256.72"/>
      <line class="cls-3" x1="485.53" y1="5.18" x2="485.53" y2="256.72"/>
      <line class="cls-3" x1="491" y1="5.18" x2="491" y2="256.72"/>
      <line class="cls-3" x1="496.47" y1="5.18" x2="496.47" y2="256.72"/>
      <line class="cls-3" x1="501.95" y1="5.18" x2="501.95" y2="256.72"/>
      <line class="cls-3" x1="507.42" y1="5.18" x2="507.42" y2="256.72"/>
      <line class="cls-3" x1="512.89" y1="5.18" x2="512.89" y2="256.72"/>
      <line class="cls-3" x1="518.36" y1="5.18" x2="518.36" y2="256.72"/>
      <line class="cls-3" x1="523.83" y1="5.18" x2="523.83" y2="256.72"/>
      <line class="cls-3" x1="529.31" y1="5.18" x2="529.31" y2="256.72"/>
      <line class="cls-3" x1="534.78" y1="5.18" x2="534.78" y2="256.72"/>
      <line class="cls-3" x1="540.25" y1="5.18" x2="540.25" y2="256.72"/>
      <line class="cls-3" x1="545.72" y1="5.18" x2="545.72" y2="256.72"/>
      <line class="cls-3" x1="551.19" y1="5.18" x2="551.19" y2="256.72"/>
      <line class="cls-3" x1="556.67" y1="5.18" x2="556.67" y2="256.72"/>
      <line class="cls-3" x1="562.14" y1="5.18" x2="562.14" y2="256.72"/>
      <line class="cls-3" x1="567.61" y1="5.18" x2="567.61" y2="256.72"/>
      <line class="cls-3" x1="573.08" y1="5.18" x2="573.08" y2="256.72"/>
      <line class="cls-3" x1="578.55" y1="5.18" x2="578.55" y2="256.72"/>
      <line class="cls-3" x1="584.03" y1="5.18" x2="584.03" y2="256.72"/>
      <line class="cls-3" x1="589.5" y1="5.18" x2="589.5" y2="256.72"/>
      <line class="cls-3" x1="594.97" y1="5.18" x2="594.97" y2="256.72"/>
      <line class="cls-3" x1="600.44" y1="5.18" x2="600.44" y2="256.72"/>
      <line class="cls-3" x1="605.91" y1="5.18" x2="605.91" y2="256.72"/>
      <line class="cls-3" x1="611.38" y1="5.18" x2="611.38" y2="256.72"/>
      <line class="cls-3" x1="616.86" y1="5.18" x2="616.86" y2="256.72"/>
      <line class="cls-3" x1="622.33" y1="5.18" x2="622.33" y2="256.72"/>
      <line class="cls-3" x1="627.8" y1="5.18" x2="627.8" y2="256.72"/>
      <line class="cls-3" x1="633.27" y1="5.18" x2="633.27" y2="256.72"/>
      <line class="cls-3" x1="638.74" y1="5.18" x2="638.74" y2="256.72"/>
      <line class="cls-3" x1="644.22" y1="5.18" x2="644.22" y2="256.72"/>
      <line class="cls-3" x1="649.69" y1="5.18" x2="649.69" y2="256.72"/>
      <line class="cls-3" x1="655.16" y1="5.18" x2="655.16" y2="256.72"/>
      <line class="cls-3" x1="660.63" y1="5.18" x2="660.63" y2="256.72"/>
      <line class="cls-3" x1="666.1" y1="5.18" x2="666.1" y2="256.72"/>
      <line class="cls-3" x1="671.58" y1="5.18" x2="671.58" y2="256.72"/>
      <line class="cls-3" x1="677.05" y1="5.18" x2="677.05" y2="256.72"/>
      <line class="cls-3" x1="682.52" y1="5.18" x2="682.52" y2="256.72"/>
      <line class="cls-3" x1="687.99" y1="5.18" x2="687.99" y2="256.72"/>
      <line class="cls-3" x1="693.46" y1="5.18" x2="693.46" y2="256.72"/>
      <line class="cls-3" x1="698.94" y1="5.18" x2="698.94" y2="256.72"/>
      <line class="cls-3" x1="704.41" y1="5.18" x2="704.41" y2="256.72"/>
      <line class="cls-3" x1="709.88" y1="5.18" x2="709.88" y2="256.72"/>
      <line class="cls-3" x1="715.35" y1="5.18" x2="715.35" y2="256.72"/>
      <line class="cls-3" x1="720.82" y1="5.18" x2="720.82" y2="256.72"/>
      <line class="cls-3" x1="726.3" y1="5.18" x2="726.3" y2="256.72"/>
      <line class="cls-3" x1="731.77" y1="5.18" x2="731.77" y2="256.72"/>
      <line class="cls-3" x1="737.24" y1="5.18" x2="737.24" y2="256.72"/>
      <line class="cls-3" x1="742.71" y1="5.18" x2="742.71" y2="256.72"/>
      <line class="cls-3" x1="748.18" y1="5.18" x2="748.18" y2="256.72"/>
      <line class="cls-3" x1="753.66" y1="5.18" x2="753.66" y2="256.72"/>
      <line class="cls-3" x1="759.13" y1="5.18" x2="759.13" y2="256.72"/>
      <line class="cls-3" x1="764.6" y1="5.18" x2="764.6" y2="256.72"/>
      <line class="cls-3" x1="770.07" y1="5.18" x2="770.07" y2="256.72"/>
      <line class="cls-3" x1="775.54" y1="5.18" x2="775.54" y2="256.72"/>
      <line class="cls-3" x1="781.01" y1="5.18" x2="781.01" y2="256.72"/>
      <line class="cls-3" x1="786.49" y1="5.18" x2="786.49" y2="256.72"/>
      <line class="cls-3" x1="791.96" y1="5.18" x2="791.96" y2="256.72"/>
      <line class="cls-3" x1="797.43" y1="5.18" x2="797.43" y2="256.72"/>
      <line class="cls-3" x1="802.9" y1="5.18" x2="802.9" y2="256.72"/>
      <line class="cls-3" x1="808.37" y1="5.18" x2="808.37" y2="256.72"/>
      <line class="cls-3" x1="813.85" y1="5.18" x2="813.85" y2="256.72"/>
      <line class="cls-3" x1="819.32" y1="5.18" x2="819.32" y2="256.72"/>
      <line class="cls-3" x1="824.79" y1="5.18" x2="824.79" y2="256.72"/>
      <line class="cls-3" x1="830.26" y1="5.18" x2="830.26" y2="256.72"/>
      <line class="cls-3" x1="835.73" y1="5.18" x2="835.73" y2="256.72"/>
      <line class="cls-3" x1="841.21" y1="5.18" x2="841.21" y2="256.72"/>
      <line class="cls-3" x1="846.68" y1="5.18" x2="846.68" y2="256.72"/>
      <line class="cls-3" x1="852.15" y1="5.18" x2="852.15" y2="256.72"/>
      <line class="cls-3" x1="857.62" y1="5.18" x2="857.62" y2="256.72"/>
      <line class="cls-3" x1="863.09" y1="5.18" x2="863.09" y2="256.72"/>
      <line class="cls-3" x1="868.57" y1="5.18" x2="868.57" y2="256.72"/>
      <line class="cls-3" x1="874.04" y1="5.18" x2="874.04" y2="256.72"/>
      <line class="cls-3" x1="879.51" y1="5.18" x2="879.51" y2="256.72"/>
      <line class="cls-3" x1="884.98" y1="5.18" x2="884.98" y2="256.72"/>
    </g>
    <line class="cls-2" x1="884.98" y1="5.18" x2="681.68" y2="256.72"/>
    <line class="cls-2" x1="749.45" y1="256.72" x2="884.98" y2="89.03"/>
    <line class="cls-2" x1="817.21" y1="256.72" x2="884.98" y2="172.87"/>
  </g>
  <polyline class="cls-4" points="4 234.02 102.77 234.02 169.64 193.53 250.63 193.53 323.02 150.58 411.36 150.58 486.21 105.18 570.87 105.18 646.33 61.01 724.25 61.01 798.48 15 888.97 15"/>
  <g>
    <path class="cls-6" d="M135.06,207.02c-13.78,0-24.95,11.17-24.95,24.95,0,7.17,3.03,13.62,7.87,18.17h0v56.28h38.62v-61.85h0c2.17-3.7,3.42-8.01,3.42-12.61,0-13.78-11.17-24.95-24.95-24.95Z"/>
    <path class="cls-6" d="M187.91,207.02c-13.78,0-24.95,11.17-24.95,24.95,0,4.6,1.25,8.91,3.42,12.61h0s0,61.85,0,61.85h38.62v-56.28h0c4.84-4.55,7.87-11.01,7.87-18.17,0-13.78-11.17-24.95-24.95-24.95Z"/>
    <path class="cls-6" d="M418.06,207.02c-13.78,0-24.95,11.17-24.95,24.95,0,7.17,3.03,13.62,7.87,18.17h0v56.28h38.62v-61.85h0c2.17-3.7,3.42-8.01,3.42-12.61,0-13.78-11.17-24.95-24.95-24.95Z"/>
    <path class="cls-6" d="M470.92,207.02c-13.78,0-24.95,11.17-24.95,24.95,0,4.6,1.25,8.91,3.42,12.61h0s0,61.85,0,61.85h38.62v-56.28h0c4.84-4.55,7.87-11.01,7.87-18.17,0-13.78-11.17-24.95-24.95-24.95Z"/>
    <path class="cls-6" d="M701.07,207.02c-13.78,0-24.95,11.17-24.95,24.95,0,7.17,3.03,13.62,7.87,18.17h0v56.28h38.62v-61.85h0c2.17-3.7,3.42-8.01,3.42-12.61,0-13.78-11.17-24.95-24.95-24.95Z"/>
    <path class="cls-6" d="M778.87,231.96c0-13.78-11.17-24.95-24.95-24.95s-24.95,11.17-24.95,24.95c0,4.6,1.25,8.91,3.42,12.61h0s0,61.85,0,61.85h38.62v-56.28h0c4.84-4.55,7.87-11.01,7.87-18.17Z"/>
  </g>
</svg>