<?xml version="1.0" encoding="utf-8"?>
<!-- Generator: Adobe Illustrator 27.0.0, SVG Export Plug-In . SVG Version: 6.00 Build 0)  -->
<svg version="1.1" id="Objet" xmlns="http://www.w3.org/2000/svg" xmlns:xlink="http://www.w3.org/1999/xlink" x="0px" y="0px"
	 viewBox="0 0 300 235" style="enable-background:new 0 0 300 235;" xml:space="preserve">
<style type="text/css">
	.st0{display:none;fill:#414042;stroke:#FFFFFF;stroke-width:1.0392;stroke-miterlimit:10;}
	.st1{display:none;fill:#FFFFFF;}
	.st2{fill:#FFFFFF;stroke:#414042;stroke-width:1.0392;stroke-miterlimit:10;}
	.st3{fill:none;stroke:#000000;stroke-width:3;stroke-miterlimit:10;}
	.st4{fill:#FFFFFF;stroke:#000000;stroke-width:3;stroke-miterlimit:10;}
</style>
<path class="st0" d="M150,47.2c0,0-119.6-2.5-109,42.5c0,0,1.8,48,29.6,71.6c27.7,23.6,21.7,18.5,38.3,23.1s41.1,3.2,41.1,3.2
	s24.5,1.4,41.1-3.2s10.6,0.5,38.3-23.1S259,89.7,259,89.7C269.6,44.7,150,47.2,150,47.2z"/>
<image style="display:none;overflow:visible;enable-background:new    ;" width="794" height="1187" xlink:href="8CC78D8A.jpeg"  transform="matrix(0.9992 0 0 0.9992 -96.6656 -612)">
</image>
<ellipse class="st1" cx="150" cy="77.7" rx="93.3" ry="23.1"/>
<g>
	<polygon points="206.7,115.8 224.5,213 215.6,213 184.7,123 	"/>
	<polygon points="113.3,148.1 98.2,213 85.8,213 91.5,145.8 	"/>
	<polygon class="st2" points="202,107.4 192.6,108.8 179.6,112.5 147.5,123.2 128.9,127.3 110,131 107.3,130.2 105.5,126.9 
		105.5,122.6 108.2,118.1 181.1,107.4 197.4,106.6 	"/>
	<path class="st3" d="M70,60.3l9.3,23.4c0,0,2.2,6.2,0.9,15.1s-4.9,28.5-4.9,28.5s-1.1,3.8,2.5,8.5s6.7,7.6,6.7,7.6s4,1.9,6.9,2.2
		c2.9,0.3,21.8,2.4,21.8,2.4s11.6,0.4,15.6-2.4c4-2.7,7.3-5.4,7.3-5.4s5.6-3.6,9.8-4.9c4.2-1.3,38.7-12.4,38.7-12.4l22-7.3"/>
	<path class="st3" d="M203.3,111.2c0,0-50.7,17.4-58.5,19.8s-12.7,6.5-16.9,9.1c-4.2,2.5-10.9,2.2-10.9,2.2s-14.9-1.3-21.8-1.4
		c-6.9-0.2-8.2-1.8-12-6.2c-3.8-4.4-2.4-10.9-2.4-10.9s4.5-24.4,5.1-29.1c0.6-4.7-2-11.8-2-11.8l-5-12.1l-5-12.1l6.8-3.3"/>
	<polyline class="st3" points="141.2,132.3 139.5,125.4 152.5,121.6 	"/>
	<line class="st3" x1="177.4" y1="113.6" x2="179.6" y2="119.3"/>
	<line class="st3" x1="190.9" y1="109.4" x2="191.9" y2="115.1"/>
	<path class="st4" d="M109.1,94.9l4.2-2.4c0,0,2.7-1.3,1.4-7.6C113.5,78.5,99.1,48,96,42.5s-9.6-16-11.8-18.4s-4-2.7-8.2-1.5"/>
	<path class="st4" d="M95.8,97.3L80.6,55.4L70,26.2c0,0,4.7-4.4,8.4-3.3C82,24,97.1,53.2,101.3,62.7c4.2,9.5,8.4,20,9.1,23.1
		c0.7,3.1,3.6,6.5-1.1,9.1c-2.8,1.5-6.6,3.2-9.2,4.3C98.4,99.9,96.4,99.1,95.8,97.3z"/>
	<line class="st3" x1="85.3" y1="68.4" x2="78.8" y2="70.8"/>
	<path class="st3" d="M228.5,113.6l-10.2-5.4c0,0-11.4-2.2-22.7,0s-43.1,13.4-43.1,13.4l2,6.2"/>
	<path class="st4" d="M105.2,123.9c0,0-2.6-8.9,4.5-11.4c7.1-2.5,70-5.3,70-5.3"/>
	<path class="st3" d="M139.5,125.4l-28.5,5.3c0,0-3.6,2.2-5.1-2.6s-1.3-10.5,7.4-11.6s50.9-7.1,50.9-7.1s22.5-3.3,32.5-3.8
		s19.4-2.8,33.3,6.7"/>
</g>
</svg>
