<?xml version="1.0" encoding="utf-8"?>
<!-- Generator: Adobe Illustrator 27.0.0, SVG Export Plug-In . SVG Version: 6.00 Build 0)  -->
<svg version="1.1" id="Objet" xmlns="http://www.w3.org/2000/svg" xmlns:xlink="http://www.w3.org/1999/xlink" x="0px" y="0px"
	 viewBox="0 0 300 235" style="enable-background:new 0 0 300 235;" xml:space="preserve">
<style type="text/css">
	.st0{display:none;}
	.st1{display:inline;}
	.st2{display:inline;fill:#FFFFFF;}
	.st3{display:inline;fill:none;stroke:#000000;stroke-width:3;stroke-miterlimit:10;}
	.st4{fill:#FFFFFF;stroke:#000000;stroke-width:4.0001;stroke-miterlimit:10.0003;}
	.st5{fill:#FFFFFF;stroke:#000000;stroke-width:3.9999;stroke-miterlimit:9.9997;}
	.st6{fill:none;stroke:#000000;stroke-width:0.2779;stroke-miterlimit:10;}
	.st7{display:inline;fill:none;stroke:#000000;stroke-width:7.9861;stroke-miterlimit:10;}
	.st8{display:inline;fill:none;stroke:#000000;stroke-width:4.0253;stroke-miterlimit:10;}
	.st9{fill:#FFFFFF;stroke:#000000;stroke-width:8.145;stroke-miterlimit:10;}
	.st10{fill:#FFFFFF;stroke:#000000;stroke-width:7.24;stroke-miterlimit:10;}
	.st11{fill:#FFFFFF;stroke:#000000;stroke-width:6.335;stroke-miterlimit:10;}
	.st12{fill:#FFFFFF;stroke:#000000;stroke-width:6;stroke-miterlimit:10;}
</style>
<image style="display:none;overflow:visible;enable-background:new    ;" width="794" height="1187" xlink:href="7D1C602E.jpeg"  transform="matrix(0.9992 0 0 0.9992 -96.6656 -612)">
</image>
<g class="st0">
	<path class="st1" d="M150,47.2c0,0-119.6-2.5-109,42.5c0,0,1.8,48,29.6,71.6c27.7,23.6,21.7,18.5,38.3,23.1s41.1,3.2,41.1,3.2
		s24.5,1.4,41.1-3.2s10.6,0.5,38.3-23.1S259,89.7,259,89.7C269.6,44.7,150,47.2,150,47.2z"/>
	<ellipse class="st2" cx="150" cy="77.7" rx="93.3" ry="23.1"/>
</g>
<g class="st0">
	<polygon class="st1" points="206.7,115.8 224.5,213 215.6,213 184.7,123 	"/>
	<polygon class="st1" points="113.3,148.1 98.2,213 85.8,213 91.5,145.8 	"/>
	<path class="st3" d="M70,60.3l9.3,23.4c0,0,2.2,6.2,0.9,15.1s-4.9,28.5-4.9,28.5s-1.1,3.8,2.5,8.5s6.7,7.6,6.7,7.6s4,1.9,6.9,2.2
		c2.9,0.3,21.8,2.4,21.8,2.4s11.6,0.4,15.6-2.4c4-2.7,7.3-5.4,7.3-5.4s5.6-3.6,9.8-4.9c4.2-1.3,38.7-12.4,38.7-12.4l22-7.3"/>
	<path class="st3" d="M203.3,111.2c0,0-50.7,17.4-58.5,19.8s-12.7,6.5-16.9,9.1c-4.2,2.5-10.9,2.2-10.9,2.2s-14.9-1.3-21.8-1.4
		c-6.9-0.2-8.2-1.8-12-6.2c-3.8-4.4-2.4-10.9-2.4-10.9s4.5-24.4,5.1-29.1c0.6-4.7-2-11.8-2-11.8l-5-12.1l-5-12.1l6.8-3.3"/>
	<polyline class="st3" points="141.2,132.3 139.5,125.4 152.5,121.6 	"/>
	<line class="st3" x1="177.4" y1="113.6" x2="179.6" y2="119.3"/>
	<line class="st3" x1="190.9" y1="109.4" x2="191.9" y2="115.1"/>
	<path class="st3" d="M95.8,97.3L80.6,55.4L70,26.2c0,0,4.7-4.4,8.4-3.3C82,24,97.1,53.2,101.3,62.7c4.2,9.5,8.4,20,9.1,23.1
		c0.7,3.1,3.6,6.5-1.1,9.1c-2.8,1.5-6.6,3.2-9.2,4.3C98.4,99.9,96.4,99.1,95.8,97.3z"/>
	<line class="st3" x1="85.3" y1="68.4" x2="78.8" y2="70.8"/>
	<path class="st3" d="M109.1,94.9l4.2-2.4c0,0,2.7-1.3,1.4-7.6C113.5,78.5,99.1,48,96,42.5s-9.6-16-11.8-18.4s-4-2.7-8.2-1.5"/>
	<path class="st3" d="M228.5,113.6l-10.2-5.4c0,0-11.4-2.2-22.7,0s-43.1,13.4-43.1,13.4l2,6.2"/>
	<path class="st3" d="M139.5,125.4l-28.5,5.3c0,0-3.6,2.2-5.1-2.6s-1.3-10.5,7.4-11.6s50.9-7.1,50.9-7.1s22.5-3.3,32.5-3.8
		s19.4-2.8,33.3,6.7"/>
	<path class="st3" d="M105.2,123.9c0,0-2.6-8.9,4.5-11.4c7.1-2.5,70-5.3,70-5.3"/>
</g>
<image style="display:none;overflow:visible;enable-background:new    ;" width="322" height="322" xlink:href="7D1C6032.jpeg"  transform="matrix(0.8157 0 0 0.8157 12.3333 -29.8333)">
</image>
<path class="st0" d="M247.6,67.8l-43.8,21.9l-10.7-21.9l-43.2,23l-11.8-23L94.4,90.3L83.8,67.8L39.4,90.3v76.9h221.1V93.4
	L247.6,67.8z M93.3,144.7H60.2V120h33.1V144.7z M142.1,144.7H109V120h33.1V144.7z M191,144.7h-33.1V120H191V144.7z M239.2,144.7
	h-33.1V120h33.1V144.7z"/>
<image style="display:none;overflow:visible;enable-background:new    ;" width="739" height="1031" xlink:href="7D1C6032.jpeg"  transform="matrix(0.525 0 0 0.525 -195 -217.8216)">
</image>
<g class="st0">
	<g class="st1">
		
			<rect x="80.8" y="63.6" transform="matrix(0.4042 -0.9147 0.9147 0.4042 -14.4728 212.798)" class="st4" width="150.5" height="107.8"/>
		
			<rect x="74.8" y="40.8" transform="matrix(0.9942 -0.1073 0.1073 0.9942 -11.7077 14.4767)" class="st5" width="107.8" height="150.5"/>
		<g>
			<polygon class="st6" points="100.3,83.7 134.4,42 131.9,40 119.3,41.3 91.2,76.3 			"/>
			<polygon class="st6" points="89.5,75 116.8,41.6 99.8,43.5 80.3,67.6 			"/>
			<polygon class="st6" points="78.7,66.3 97.1,43.7 80.3,45.5 69.5,58.9 			"/>
		</g>
		<polygon points="132.7,153.1 123.5,145.8 157.3,103.8 166.7,111.4 		"/>
		<polygon points="122,144.5 112.8,137.1 146.6,95.2 156,102.8 		"/>
		<polygon points="111.4,136 102.2,128.6 136,86.7 145.4,94.3 		"/>
		<polygon points="89.7,118.5 80.5,111.1 114.2,69.2 123.7,76.8 		"/>
		<polygon class="st6" points="121.9,101.1 112.7,93.7 146.5,51.7 155.9,59.3 		"/>
		<rect x="81.7" y="169.4" transform="matrix(0.9942 -0.1073 0.1073 0.9942 -17.7905 10.9354)" width="22.1" height="2.8"/>
		<rect x="82.7" y="178.4" transform="matrix(0.9942 -0.1073 0.1073 0.9942 -18.7475 11.2494)" width="25" height="2.8"/>
		<rect x="83.1" y="182.6" transform="matrix(0.9942 -0.1073 0.1073 0.9942 -19.1816 11.5601)" width="29.4" height="2.8"/>
		<rect x="83.6" y="187.5" transform="matrix(0.9942 -0.1073 0.1073 0.9942 -19.7103 11.5348)" width="27.4" height="2.8"/>
		<rect x="120.2" y="174.2" transform="matrix(0.9942 -0.1073 0.1073 0.9942 -18.0669 15.4387)" width="28.5" height="2.8"/>
		<rect x="119.7" y="169.5" transform="matrix(0.9942 -0.1073 0.1073 0.9942 -17.5488 15.6481)" width="33.9" height="2.8"/>
		<rect x="154.9" y="165.3" transform="matrix(0.9942 -0.1073 0.1073 0.9942 -16.799 19.3235)" width="32.5" height="1"/>
		<rect x="155.1" y="167.7" transform="matrix(0.9942 -0.1073 0.1073 0.9942 -17.1151 18.3085)" width="12.9" height="1"/>
		<rect x="155.3" y="168.9" transform="matrix(0.9942 -0.1073 0.1073 0.9942 -17.2055 19.0269)" width="25.8" height="1"/>
		<rect x="155.5" y="170.4" transform="matrix(0.9942 -0.1073 0.1073 0.9942 -17.3494 19.4134)" width="32.5" height="1"/>
		<rect x="155.7" y="172.4" transform="matrix(0.9942 -0.1073 0.1073 0.9942 -17.5656 19.3556)" width="30.8" height="1"/>
		<rect x="155.9" y="174.9" transform="matrix(0.9942 -0.1073 0.1073 0.9942 -17.8684 18.7672)" width="19.1" height="1"/>
		<rect x="156.1" y="176.9" transform="matrix(0.9942 -0.1073 0.1073 0.9942 -18.0782 18.7489)" width="18.1" height="1"/>
		<rect x="156.4" y="179.4" transform="matrix(0.9942 -0.1073 0.1073 0.9942 -18.3113 19.5163)" width="31.5" height="1"/>
		<rect x="156.6" y="180.9" transform="matrix(0.9942 -0.1073 0.1073 0.9942 -18.4641 19.5949)" width="32.5" height="1"/>
		<rect x="120.7" y="178.6" transform="matrix(0.9942 -0.1073 0.1073 0.9942 -18.5384 15.5157)" width="28.5" height="2.8"/>
		<rect x="121.2" y="183.4" transform="matrix(0.9942 -0.1073 0.1073 0.9942 -19.0412 15.6499)" width="29.5" height="2.8"/>
	</g>
	<rect x="213" y="196.3" transform="matrix(0.7559 -0.6547 0.6547 0.7559 -73.67 199.3113)" class="st1" width="35" height="4.3"/>
	<g class="st1">
		<path d="M246.2,185.1l-1.2,1.9l-1-1.1L246.2,185.1 M248.6,183.2l-6.3,2.2l2.8,3.2L248.6,183.2L248.6,183.2z"/>
	</g>
	
		<rect x="212.3" y="174.6" transform="matrix(0.4812 -0.8766 0.8766 0.4812 -35.719 293.0752)" class="st1" width="34.9" height="4.3"/>
	<g class="st1">
		<path d="M239.8,158.7l-0.5,2.2l-1.3-0.7L239.8,158.7 M241.4,156.1l-5.2,4.3l3.8,2.1L241.4,156.1L241.4,156.1z"/>
	</g>
</g>
<g class="st0">
	<path class="st7" d="M110.6,148.4V80.3h102.9v102.2H110.6V169h25.6C136.2,169,131.2,148.4,110.6,148.4z"/>
	
		<rect x="88.5" y="179.7" transform="matrix(0.6547 -0.7559 0.7559 0.6547 -117.7385 136.6416)" class="st1" width="4.3" height="35"/>
	<g class="st1">
		<path d="M75,183.8l2.2,0.8l-1,1.1L75,183.8 M72.6,181.9l3.5,5.5l2.8-3.2L72.6,181.9L72.6,181.9z"/>
	</g>
	
		<rect x="89.2" y="158" transform="matrix(0.8766 -0.4812 0.4812 0.8766 -73.1439 65.6195)" class="st1" width="4.3" height="34.9"/>
	<g class="st1">
		<path d="M81.3,157.4l1.8,1.5l-1.3,0.7L81.3,157.4 M79.7,154.8l1.4,6.4l3.8-2.1L79.7,154.8L79.7,154.8z"/>
	</g>
	<path class="st7" d="M213.6,131.4h-16v-20.6c-14.2,0-20.6,20.6-20.6,20.6h-14.9h-16v-20.6c-14.2,0-20.6,20.6-20.6,20.6h-14.9"/>
	<polygon class="st1" points="212.9,46.1 195,69.9 195.2,57.2 207.9,39.2 	"/>
	<polygon class="st1" points="215.3,46.5 222.8,75.4 227.4,63.5 222.6,42.1 	"/>
	<circle class="st1" cx="215.8" cy="36.2" r="6.3"/>
	<line class="st8" x1="218" y1="24.8" x2="216.8" y2="30.9"/>
</g>
<image style="display:none;overflow:visible;enable-background:new    ;" width="1600" height="1618" xlink:href="7D1C6036.jpeg"  transform="matrix(0.9994 0 0 0.9994 -840.5056 -669)">
</image>
<path class="st0" d="M223.1,103.5c-7.3-50.5-21.9-51.1-31.6-54.8c-9.7-3.7-21.3-9.7-20.7-15.2s-4.9-9.1-4.9-9.1H150h-15.8
	c0,0-5.5,3.6-4.9,9.1s-11,11.6-20.7,15.2S84.3,53,77,103.5s-9.7,98.6-9.7,98.6s1.2,7.9,9.7,8.5s14-6.1,15.2-14s13.4-91.9,13.4-91.9
	l-0.6,93.1c0,0,12.8,12.2,45,9.7c32.3,2.4,45.1-9.7,45.1-9.7l-0.6-93.1c0,0,12.2,84,13.4,91.9c1.2,7.9,6.7,14.6,15.2,14
	s9.7-8.5,9.7-8.5S230.4,154,223.1,103.5z"/>
<image style="display:none;overflow:visible;enable-background:new    ;" width="1601" height="1691" xlink:href="7D1C6036.jpeg"  transform="matrix(0.9994 0 0 0.9994 -616.9315 -716.3905)">
</image>
<g>
	<path class="st9" d="M234.3,193.4c0,0-11.8-48.3-13-64.9s-2.7-49.8,4.5-68.5c-0.9-6.6-9.1-5.4-9.1-5.4s-8.4,16-6.6,48
		s11.8,86.9,11.9,90.8L234.3,193.4z"/>
	<path class="st9" d="M174.3,196.4c0,0-8.4,0.6-10,5.1c-1.5,4.5,2.7,6.9,2.7,6.9h72.1v-12.1H174.3z"/>
	<path class="st10" d="M168.9,174.7c0,0,8.1-137.2,7.8-146.9c6.6-3.6,12.4,1.2,13.9,3.6s8.1,39.5,5.7,75.1
		c-2.4,35.6-8.1,57.3-10,61.2c-1.8,3.9-6.9,6.6-11.5,6.9S168.9,174.7,168.9,174.7z"/>
	<line class="st11" x1="195.1" y1="120.4" x2="211.7" y2="120.4"/>
	<line class="st11" x1="209.9" y1="89.9" x2="196.8" y2="91.4"/>
</g>
<polygon class="st12" points="68.7,208.5 124,208.5 124,199.8 76.7,204.1 "/>
</svg>
